<?xml version="1.0" standalone="no"?>
<!DOCTYPE svg PUBLIC "-//W3C//DTD SVG 20010904//EN"
 "http://www.w3.org/TR/2001/REC-SVG-20010904/DTD/svg10.dtd">
<svg version="1.0" xmlns="http://www.w3.org/2000/svg"
 width="512.000000pt" height="512.000000pt" viewBox="0 0 512.000000 512.000000"
 preserveAspectRatio="xMidYMid meet">
<metadata>
Created by potrace 1.11, written by Peter Selinger 2001-2013
</metadata>
<g transform="translate(0.000000,512.000000) scale(0.100000,-0.100000)"
fill="#000000" stroke="none">
<path d="M2380 4644 c-548 -50 -969 -259 -1236 -613 -71 -94 -160 -265 -197
-379 -14 -40 -27 -75 -30 -78 -3 -3 -61 0 -129 6 -274 26 -480 76 -543 132
-41 36 -44 27 -20 -65 32 -122 96 -210 184 -251 41 -19 69 -22 261 -26 l215
-5 6 -55 c4 -30 12 -75 19 -100 16 -60 81 -191 125 -250 52 -71 165 -173 242
-219 246 -145 474 -157 713 -39 103 51 205 149 264 251 21 37 42 67 46 67 9 0
121 -210 195 -367 32 -68 61 -123 65 -123 4 0 33 55 65 123 74 157 186 367
195 367 4 0 25 -30 46 -67 109 -189 308 -310 544 -329 187 -16 410 72 571 223
85 81 127 137 178 239 44 88 61 142 70 224 l6 55 215 5 c192 4 220 7 261 26
88 41 152 129 184 251 24 92 21 101 -20 65 -63 -56 -269 -106 -543 -132 -68
-6 -126 -9 -129 -6 -3 3 -16 38 -30 78 -37 114 -126 285 -197 379 -239 317
-612 523 -1076 594 -102 15 -428 27 -520 19z m375 -134 c611 -58 1071 -384
1240 -880 14 -40 25 -77 25 -82 0 -4 -160 -8 -356 -8 -401 0 -440 -5 -580 -70
-109 -50 -185 -103 -271 -188 -92 -91 -160 -196 -209 -321 -21 -56 -41 -101
-44 -101 -3 0 -22 44 -43 98 -87 228 -256 408 -481 512 -140 65 -179 70 -580
70 -210 0 -356 4 -356 9 0 23 65 193 98 256 119 227 345 438 594 555 275 129
618 182 963 150z m-1411 -1202 c8 -80 54 -177 104 -218 103 -84 246 -76 356
21 34 29 106 156 106 185 0 8 3 14 7 14 12 0 98 -53 150 -92 61 -47 61 -49 7
-166 -147 -318 -573 -392 -825 -142 -104 103 -149 216 -149 372 l0 88 119 0
118 0 7 -62z m2676 -26 c0 -156 -45 -269 -149 -372 -252 -250 -678 -176 -825
142 -54 117 -54 119 7 166 52 39 138 92 150 92 4 0 7 -6 7 -14 0 -29 72 -156
106 -185 110 -97 253 -105 356 -21 50 41 96 138 104 218 l7 62 118 0 119 0 0
-88z"/>
<path d="M900 2128 c0 -750 2 -861 16 -909 57 -194 231 -325 548 -409 61 -16
233 -54 381 -84 387 -79 512 -122 595 -207 l40 -41 0 910 0 911 -35 36 c-84
84 -192 113 -505 135 -433 31 -622 85 -807 232 -73 57 -134 126 -192 217 l-41
64 0 -855z m372 324 c166 -69 326 -99 674 -126 206 -16 311 -35 362 -66 l32
-20 0 -740 c0 -534 -3 -740 -11 -740 -6 0 -48 11 -93 25 -46 14 -206 50 -357
80 -307 62 -427 93 -537 136 -144 57 -228 123 -272 214 l-25 50 -3 662 -3 661
79 -52 c43 -29 112 -67 154 -84z"/>
<path d="M4181 2923 c-102 -166 -250 -288 -431 -356 -136 -51 -291 -77 -570
-97 -313 -22 -421 -51 -505 -135 l-35 -36 0 -911 0 -910 40 41 c83 85 208 128
595 207 148 30 320 68 381 84 318 84 492 215 548 410 14 49 16 155 14 906 l-3
851 -34 -54z m-111 -1653 c-29 -116 -121 -201 -291 -268 -111 -44 -231 -75
-538 -137 -151 -30 -311 -66 -357 -80 -45 -14 -87 -25 -93 -25 -8 0 -11 206
-11 740 l0 740 32 20 c51 31 156 50 362 66 443 34 640 84 825 208 l76 51 3
-635 c2 -437 -1 -649 -8 -680z"/>
</g>
</svg>
